<svg version="1.1" id="Layer_1" xmlns="http://www.w3.org/2000/svg" xmlns:xlink="http://www.w3.org/1999/xlink" x="0px" y="0px"
	 width="100%" viewBox="0 0 496 496" enable-background="new 0 0 496 496" xml:space="preserve">
<path fill="#000000" opacity="1.000000" stroke="none" 
	d="
M290.198547,236.730530 
	C293.188690,237.311203 295.939758,237.824020 298.586884,238.664215 
	C299.650055,239.001663 300.535828,239.344315 301.239655,238.402008 
	C302.400635,236.847610 305.933655,236.178680 304.104980,233.486557 
	C302.532288,231.171234 299.853516,232.172195 297.810028,233.432236 
	C296.762451,234.078186 296.047943,235.264313 295.174469,236.215530 
	C292.008942,232.717651 293.737793,230.976883 302.112549,229.022003 
	C302.606354,223.831558 296.176483,220.608032 297.534576,214.410233 
	C300.612274,216.033813 301.614929,218.413025 302.799469,220.480621 
	C326.438019,261.740967 299.915405,313.881958 252.650940,319.428955 
	C222.778366,322.934753 190.302994,304.615479 180.920746,271.423828 
	C180.321198,269.302795 178.604752,266.627472 182.116745,264.759735 
	C184.578705,267.274994 183.569138,271.223755 186.466919,274.216370 
	C189.750824,269.650421 194.806305,266.541718 192.893509,259.397095 
	C191.466873,254.068359 195.666901,248.221100 201.087021,246.243378 
	C202.668808,245.666199 203.573044,246.516129 204.701248,247.192673 
	C207.818619,249.061981 210.051926,252.094940 211.376434,255.047012 
	C212.886749,258.413208 214.827881,260.963501 217.553925,263.184692 
	C218.723007,264.137238 219.372681,265.538239 217.995193,266.564026 
	C214.861343,268.897736 212.523117,272.067902 208.479340,273.506470 
	C203.064240,275.432953 197.721359,277.634888 192.324631,279.668488 
	C189.168381,280.857819 189.468491,283.143829 191.054382,285.711090 
	C201.288300,302.278015 216.028976,312.515076 235.163727,315.427551 
	C257.439148,318.818024 276.496613,311.788757 291.974945,295.313629 
	C292.317078,294.949463 292.677826,294.595062 292.969299,294.192291 
	C295.056702,291.307526 298.992706,288.106140 295.723083,284.723267 
	C292.968262,281.873077 289.820007,285.458954 287.158508,287.232758 
	C286.907745,287.399902 286.521454,287.363678 286.117737,287.436340 
	C284.017944,286.275024 284.611511,284.203094 284.956421,282.588745 
	C285.555908,279.782654 284.226562,277.592316 282.877289,275.652222 
	C280.686218,272.501770 278.872314,275.780853 277.009979,276.575836 
	C274.880310,277.484955 272.718262,276.825867 270.484741,277.140167 
	C271.627747,280.672485 269.560455,282.321198 266.583923,283.120300 
	C263.153473,284.041290 261.540161,286.320557 259.480225,289.190796 
	C256.248505,293.693817 251.325745,297.283417 245.561050,298.384094 
	C242.268707,299.012756 239.600449,297.384735 240.031204,293.269562 
	C240.440338,289.360992 240.263214,285.456696 242.687317,281.830627 
	C245.837860,277.117920 244.064484,271.162354 238.890366,268.961212 
	C234.670914,267.166229 232.786789,263.818146 233.111526,259.996307 
	C233.435699,256.181305 234.947769,252.289658 239.857559,251.208740 
	C241.754471,250.791138 244.141724,250.007568 244.542221,247.314819 
	C245.071457,243.756516 246.652649,241.977142 250.608582,244.536133 
	C251.215729,241.326324 250.026993,239.041046 249.573166,236.564331 
	C248.967148,233.256958 253.160934,233.638153 254.894043,230.856277 
	C256.096954,234.391556 254.940552,237.408035 257.466461,239.307220 
	C259.725464,239.304901 260.621857,237.926346 260.675934,235.833939 
	C260.862549,228.618423 267.807190,229.418762 271.750397,227.116104 
	C275.000244,225.218338 279.136627,226.669891 281.883087,230.221878 
	C284.019928,232.985474 285.546173,236.689102 290.198547,236.730530 
z"/>
<path fill="#000000" opacity="1.000000" stroke="none" 
	d="
M181.009003,252.992401 
	C178.388062,253.991028 178.792953,251.998947 178.685791,250.598450 
	C178.350891,246.222061 179.198334,241.933426 180.238678,237.764435 
	C187.999924,206.662521 216.079926,185.510056 248.116928,186.780899 
	C261.805847,187.323914 274.027100,192.489914 285.201050,200.177780 
	C286.902618,201.348495 288.069153,203.296829 290.254791,205.752457 
	C289.144623,201.405396 286.008759,199.083084 285.733856,195.013885 
	C289.975800,196.554733 294.559662,196.018845 297.016663,200.414520 
	C297.637909,201.526031 298.904510,201.857727 300.108490,201.541077 
	C309.218842,199.144867 318.315613,196.696854 328.239471,194.045120 
	C322.457764,184.900696 317.173828,176.543549 311.851807,168.126175 
	C318.074219,165.473053 320.755920,166.156174 324.467194,170.548096 
	C327.632904,174.294373 329.984863,178.885223 335.166626,180.624878 
	C336.470642,181.062653 337.106506,182.654755 337.163788,184.366119 
	C337.359436,190.213516 340.361938,192.631744 346.119659,191.437653 
	C352.855865,190.040649 359.573639,189.133331 366.422638,190.467255 
	C368.021393,190.778641 369.817810,190.681625 370.641785,192.676208 
	C370.256531,195.018021 368.146240,195.560471 366.411316,196.374863 
	C360.348480,199.220886 353.917877,200.927887 347.370026,202.201645 
	C342.625916,203.124557 340.342560,206.439713 341.733063,211.040756 
	C342.262115,212.791153 342.703369,214.704178 341.336456,215.675125 
	C336.731720,218.946014 335.537750,224.099960 333.957458,228.846878 
	C332.042664,234.598557 327.822601,236.139496 321.796143,237.064636 
	C323.286469,226.093765 328.166046,216.422684 330.306854,205.351730 
	C320.297607,206.367096 310.767548,207.304398 301.245697,208.318588 
	C298.565460,208.604065 298.027344,211.042007 297.262207,212.975998 
	C295.791992,216.692139 293.116028,218.367615 289.157898,218.506744 
	C289.002197,217.983963 288.606232,217.378708 288.769348,217.095901 
	C292.498779,210.629532 288.485809,207.257431 283.819031,203.799164 
	C272.816254,195.645721 260.584381,191.148682 246.694199,190.839890 
	C254.430237,190.552917 256.754974,197.892319 262.306702,201.420166 
	C259.705353,202.977936 257.041595,204.322769 256.391266,207.558563 
	C256.141266,208.802567 254.790894,209.107941 253.655334,209.461365 
	C246.825958,211.586899 240.010269,213.756760 233.170349,215.847534 
	C232.441040,216.070465 231.584610,215.877579 230.818222,215.877579 
	C229.032776,213.161499 230.774078,211.020020 231.612610,208.748672 
	C234.056931,202.127716 232.957535,198.887192 227.420364,194.770737 
	C226.083496,193.776886 225.145554,193.791031 223.840134,194.349274 
	C222.240799,195.033203 222.112656,196.422485 222.478104,197.702011 
	C223.160934,200.092911 224.059799,202.430801 225.001587,204.736496 
	C225.889603,206.910492 225.379868,208.551224 223.628647,210.048340 
	C222.783295,210.771057 222.051254,211.276779 221.010101,210.651886 
	C219.099350,209.505096 219.022369,207.836349 219.550385,205.869293 
	C220.014069,204.141891 219.850891,202.379578 217.797134,201.789429 
	C215.817459,201.220535 215.258575,203.024124 214.628403,204.289856 
	C213.747559,206.059113 212.713486,207.198624 210.833054,205.684555 
	C208.807068,204.053268 207.284760,205.307327 206.062820,206.566498 
	C204.670898,208.000809 206.096878,209.287872 206.892899,210.520157 
	C207.868744,212.030853 208.812500,213.562256 209.758850,215.066803 
	C212.245956,214.686264 212.488159,212.597855 213.332260,211.090851 
	C215.036194,208.048828 216.836838,208.425049 218.605347,210.922913 
	C219.449707,212.115524 220.048981,213.385025 221.152023,214.497116 
	C224.065979,217.434891 223.594086,220.001556 219.825867,222.026443 
	C213.385773,225.487076 207.006287,229.034149 201.136856,233.300735 
	C198.326797,232.014862 196.338257,229.032501 193.030090,230.138824 
	C191.748627,230.567383 191.231400,232.023087 191.378967,233.500137 
	C191.633652,236.048828 194.077576,234.681183 195.275742,235.419891 
	C195.517654,238.054123 193.955673,239.174377 191.893280,240.362320 
	C190.019730,238.401993 188.318893,236.105667 185.253143,235.141220 
	C182.269775,240.441513 183.139038,246.686310 181.144577,252.624786 
	C180.999649,253.000671 181.009003,252.992401 181.009003,252.992401 
z"/>
<path fill="#000000" opacity="1.000000" stroke="none" 
	d="
M299.940460,323.922302 
	C321.834106,307.100403 334.184418,285.322998 336.743073,258.123169 
	C337.083740,254.501541 338.138794,250.913025 337.300568,247.199585 
	C337.001587,245.875031 337.168274,244.263763 338.942322,244.139313 
	C341.021484,243.993439 341.165649,245.728821 341.256683,247.268723 
	C341.742218,255.480942 340.736816,263.584534 338.891174,271.536743 
	C329.587830,311.622101 296.311218,340.735229 255.547974,345.467072 
	C206.380371,351.174530 158.550552,317.288940 149.905029,265.305267 
	C147.672668,251.882538 148.296280,238.428879 151.834030,225.213852 
	C152.264038,223.607559 152.246948,220.774750 154.657761,221.296783 
	C157.447418,221.900833 156.183243,224.505173 155.738159,226.325256 
	C150.324997,248.460617 151.871170,270.000641 162.219360,290.411743 
	C176.595566,318.767853 199.613449,335.839661 231.134628,340.768005 
	C256.172180,344.682617 279.032745,338.819672 299.940460,323.922302 
z"/>
<path fill="#000000" opacity="1.000000" stroke="none" 
	d="
M180.995834,253.006714 
	C192.086197,241.114853 204.611359,231.104355 219.170868,223.694565 
	C235.969833,215.145035 253.864212,210.343109 272.446228,207.864853 
	C275.114838,207.508942 277.889069,207.224136 281.823792,208.531128 
	C269.868103,211.600510 258.923309,213.546326 248.519638,217.340607 
	C225.947311,225.572845 205.060303,236.693176 188.020721,254.035889 
	C182.269867,259.889069 177.430664,266.465637 174.942093,274.444458 
	C172.577560,282.025604 173.330978,288.908600 179.878983,294.318848 
	C180.506561,294.837372 181.190155,295.356171 181.133820,296.319824 
	C173.781097,294.910522 168.670288,285.805634 170.035461,276.940582 
	C171.395081,268.111664 175.662369,260.694672 180.909027,253.322418 
	C181.009003,252.992401 180.999649,253.000671 180.995834,253.006714 
z"/>
<path fill="#000000" opacity="1.000000" stroke="none" 
	d="
M172.075180,204.048950 
	C169.714828,202.451752 167.559479,201.187073 165.605225,199.664276 
	C163.927979,198.357330 160.199997,197.876404 161.453751,195.046463 
	C163.076324,191.384048 165.100922,187.366714 169.363922,185.925659 
	C172.398209,184.899948 174.872482,186.336731 176.421661,189.122513 
	C177.271042,190.649857 178.248337,191.738876 180.191757,191.881622 
	C181.861465,192.004288 184.334991,191.665359 183.993683,194.498901 
	C183.693359,196.992340 182.453293,198.906464 179.390106,198.492676 
	C178.756989,198.407150 178.102463,198.480270 176.811600,198.480270 
	C178.262009,200.789337 179.936417,202.748169 177.514465,205.020233 
	C175.292984,207.104218 173.965546,205.264587 172.075180,204.048950 
z"/>
<path fill="#000000" opacity="1.000000" stroke="none" 
	d="
M270.633209,172.270309 
	C261.111755,172.103210 257.278961,166.512100 260.883667,158.698883 
	C263.327911,153.400970 267.806671,151.633804 273.156158,153.856598 
	C277.826569,155.797241 279.493774,160.090378 277.623718,165.394638 
	C276.470490,168.665863 274.631744,171.288010 270.633209,172.270309 
M267.050232,161.702499 
	C266.384766,163.570709 265.385376,165.693848 267.831177,166.836548 
	C269.406647,167.572647 270.102661,165.873703 270.536499,164.672592 
	C271.172668,162.911377 272.725861,160.877075 270.581970,159.308334 
	C268.850067,158.041016 268.006531,159.722427 267.050232,161.702499 
z"/>
<path fill="#000000" opacity="1.000000" stroke="none" 
	d="
M183.902588,184.936584 
	C182.694977,182.149338 181.718933,179.665131 180.531464,177.286438 
	C179.184967,174.589218 179.856476,172.653793 182.107437,170.758850 
	C184.419281,168.812637 186.235199,169.496307 188.333191,171.022476 
	C192.205490,173.839325 196.189331,176.502823 199.908188,179.078857 
	C199.784836,179.984421 199.848541,180.514053 199.680969,180.601761 
	C194.907928,183.099747 189.891510,185.280914 188.312225,191.097824 
	C185.127914,189.539093 185.101929,187.084961 183.902588,184.936584 
z"/>
<path fill="#000000" opacity="1.000000" stroke="none" 
	d="
M223.179108,153.575317 
	C226.855988,148.885559 230.439301,149.053787 232.719452,153.670578 
	C234.265762,156.801483 235.728729,159.975769 237.142593,163.168900 
	C237.788223,164.626968 239.112198,166.347809 237.421173,167.702438 
	C236.123108,168.742249 234.082825,168.944122 232.717468,167.855103 
	C230.122498,165.785355 228.524536,165.991470 226.850525,169.001114 
	C225.844040,170.810669 223.768982,170.550552 221.707153,169.657486 
	C221.060303,164.372757 222.841354,159.232758 223.179108,153.575317 
z"/>
<path fill="#000000" opacity="1.000000" stroke="none" 
	d="
M291.468201,183.215942 
	C286.227051,183.137329 282.340088,180.993271 280.935272,176.214066 
	C279.582062,171.610580 281.579712,167.623428 285.476929,165.014359 
	C289.628113,162.235260 293.745026,163.553238 297.489929,166.191879 
	C301.181885,168.793213 301.005127,170.116989 296.808533,172.904938 
	C294.320038,172.482239 293.431976,168.022324 290.183167,169.963730 
	C288.227966,171.132080 286.824707,173.123672 287.506042,175.613068 
	C288.266266,176.373856 288.912292,176.228622 289.444519,175.775528 
	C291.289612,174.204849 292.895782,175.046585 294.280243,176.365738 
	C296.043060,178.045425 294.384644,179.341599 293.532257,180.662903 
	C292.996704,181.493073 292.373749,182.266846 291.468201,183.215942 
z"/>
<path fill="#000000" opacity="1.000000" stroke="none" 
	d="
M206.766418,175.577698 
	C202.822510,171.110779 199.180344,166.872528 195.593201,162.698288 
	C199.485901,158.404114 199.485901,158.404114 207.539352,167.294266 
	C207.022064,164.035446 206.795807,161.547379 206.202621,159.150101 
	C205.507095,156.339157 207.308975,155.526886 209.294235,155.071976 
	C211.685776,154.523972 211.939514,156.513611 212.185120,158.135712 
	C212.827194,162.376297 213.683655,166.618881 213.863617,170.885590 
	C214.056290,175.453766 210.507126,175.765182 206.766418,175.577698 
z"/>
<path fill="#000000" opacity="1.000000" stroke="none" 
	d="
M155.899567,205.867676 
	C157.796097,204.216949 160.193893,204.914902 160.267044,206.239044 
	C160.573212,211.782211 165.098160,211.630539 168.480423,212.983215 
	C172.819763,214.718643 172.994415,215.174927 170.203781,219.850327 
	C167.787720,220.112869 165.906601,218.439789 163.702286,217.896240 
	C161.173141,217.272598 158.558548,215.081329 156.289673,218.603790 
	C155.572403,219.717361 154.197327,219.167130 153.155960,218.502243 
	C151.987595,217.756256 151.784332,216.699783 152.230530,215.486115 
	C153.370392,212.385651 154.541733,209.296753 155.899567,205.867676 
z"/>
<path fill="#000000" opacity="1.000000" stroke="none" 
	d="
M250.190674,150.411606 
	C250.341003,154.399429 250.341003,158.023468 250.341003,162.408585 
	C250.604340,162.955475 251.974823,162.601547 252.998871,163.012222 
	C254.457397,163.597122 255.209915,164.709274 254.574234,166.138824 
	C252.735916,170.272842 249.102188,167.877380 246.269775,168.123611 
	C243.897522,168.329865 242.444687,166.882889 243.064941,164.347321 
	C243.946716,160.742645 243.508530,157.094116 243.726761,153.470139 
	C244.018112,148.632248 245.189453,148.001724 250.190674,150.411606 
z"/>
<path fill="#000000" opacity="1.000000" stroke="none" 
	d="
M259.138184,298.143738 
	C256.741211,294.285034 258.385742,292.212952 263.833099,292.236542 
	C263.667755,295.226868 261.880371,296.883575 259.138184,298.143738 
z"/>
</svg>